<?xml version="1.0" standalone="no"?>
<!DOCTYPE svg PUBLIC "-//W3C//DTD SVG 20010904//EN"
 "http://www.w3.org/TR/2001/REC-SVG-20010904/DTD/svg10.dtd">
<svg version="1.0" xmlns="http://www.w3.org/2000/svg"
 width="16.000000pt" height="16.000000pt" viewBox="0 0 16.000000 16.000000"
 preserveAspectRatio="xMidYMid meet">
<metadata>
Created by potrace 1.11, written by Peter Selinger 2001-2013
</metadata>
<g transform="translate(0.000000,16.000000) scale(0.000750,-0.000750)"
fill="#000000" stroke="none">
<path d="M9808 19875 c-2 -2 -55 -6 -118 -9 -154 -8 -303 -23 -420 -41 -14 -2
-43 -6 -65 -10 -23 -3 -50 -7 -62 -9 -11 -3 -37 -7 -56 -10 -132 -21 -359 -81
-497 -131 -345 -125 -595 -300 -742 -520 -56 -85 -79 -136 -114 -251 -24 -80
-27 -106 -28 -254 -1 -193 6 -249 45 -357 60 -167 155 -272 324 -356 159 -79
349 -120 616 -133 l127 -5 1 94 c9 728 211 1103 681 1268 30 11 68 22 85 25
16 3 46 9 65 14 132 34 595 38 700 5 8 -2 33 -7 55 -10 22 -4 76 -17 119 -31
382 -121 611 -430 671 -901 3 -24 7 -60 10 -80 2 -21 7 -69 10 -108 2 -38 7
-104 11 -145 7 -99 8 -1089 1 -1097 -3 -3 -50 -7 -104 -9 -54 -1 -168 -5 -253
-9 -85 -3 -216 -7 -290 -10 -564 -18 -724 -25 -880 -40 -30 -2 -84 -7 -120
-10 -36 -4 -76 -8 -90 -10 -14 -2 -50 -7 -80 -10 -30 -3 -84 -11 -120 -16 -36
-6 -74 -12 -85 -14 -254 -37 -585 -123 -815 -212 -460 -177 -784 -429 -987
-768 -45 -75 -121 -237 -138 -295 -1 -3 -13 -41 -27 -86 -28 -83 -64 -261 -74
-355 -3 -30 -7 -70 -9 -89 -6 -45 -6 -344 -1 -430 10 -164 39 -358 72 -480 8
-30 17 -66 20 -79 23 -112 201 -494 236 -509 4 -2 8 -9 8 -14 0 -23 117 -167
214 -264 141 -141 254 -222 431 -309 190 -94 376 -155 558 -185 34 -5 71 -12
82 -14 11 -2 49 -7 85 -10 36 -4 83 -10 105 -13 87 -12 470 -4 565 11 14 3 47
7 74 11 41 5 135 23 206 40 52 12 169 53 250 87 385 162 639 392 1090 987 57
75 91 111 105 112 11 0 33 2 48 3 36 2 43 -8 51 -68 4 -27 9 -52 11 -55 1 -3
6 -24 9 -46 11 -67 26 -156 41 -230 7 -38 16 -86 19 -105 3 -19 15 -84 26
-145 11 -60 23 -123 26 -140 9 -54 14 -80 18 -100 2 -11 12 -67 22 -125 10
-58 21 -107 25 -110 4 -3 1172 -5 2596 -5 l2588 0 3 276 2 277 -102 1 c-105 1
-124 3 -283 21 -103 11 -108 12 -195 35 -78 20 -200 76 -255 118 -158 119
-250 304 -273 552 -8 96 -8 3039 1 3196 4 69 9 135 11 146 3 12 7 49 11 82 3
33 7 68 9 78 11 62 16 93 22 128 3 22 10 60 16 85 5 25 12 56 14 70 3 14 14
57 25 95 92 320 238 585 425 770 312 310 687 429 1229 392 55 -4 110 -9 121
-11 12 -2 39 -7 59 -10 134 -22 290 -75 415 -143 254 -137 435 -372 544 -705
29 -87 72 -270 81 -343 1 -11 5 -45 9 -75 4 -30 9 -68 11 -85 16 -123 19 -577
19 -2622 1 -1278 3 -2324 6 -2324 3 -1 519 -2 1147 -3 l1142 -1 0 276 0 277
-102 2 c-142 3 -190 7 -326 27 -181 26 -347 113 -442 230 -95 118 -146 259
-175 483 -4 30 -8 856 -10 1835 -1 979 -5 1800 -8 1825 -3 25 -8 77 -11 115
-11 133 -31 266 -69 461 -46 233 -158 525 -284 740 -131 225 -348 447 -577
591 -139 88 -333 170 -515 219 -75 20 -309 65 -365 70 -38 3 -97 9 -130 13
-61 8 -521 6 -565 -2 -14 -3 -56 -8 -95 -12 -38 -4 -77 -8 -85 -10 -8 -2 -37
-6 -65 -9 -27 -4 -57 -9 -65 -11 -8 -2 -31 -7 -50 -10 -40 -7 -147 -37 -235
-67 -99 -33 -295 -131 -385 -193 -279 -190 -512 -453 -717 -805 -32 -56 -42
-65 -65 -65 -15 0 -29 3 -32 5 -3 4 -53 294 -81 470 -7 47 -36 225 -41 255 -3
17 -7 39 -9 50 -14 98 -32 212 -41 258 l-6 27 -1061 -2 -1062 -3 0 -272 c0
-150 2 -273 5 -274 3 0 48 -2 100 -4 358 -13 546 -60 715 -180 145 -103 244
-276 279 -492 13 -76 15 -402 13 -2313 -2 -1224 -6 -2241 -11 -2259 -44 -192
-78 -274 -151 -375 -112 -156 -282 -253 -497 -285 -40 -6 -89 -14 -108 -17
-19 -3 -138 -7 -265 -9 -251 -4 -336 5 -474 51 -176 59 -288 184 -351 391 -24
80 -25 85 -35 163 -4 30 -9 66 -13 80 -3 14 -6 869 -8 1900 -1 1031 -5 1934
-8 2005 -17 404 -101 766 -243 1049 -188 374 -480 631 -903 791 -88 34 -320
97 -400 109 -51 8 -93 16 -110 21 -8 3 -42 7 -75 10 -33 3 -70 8 -83 10 -13 2
-53 7 -90 10 -37 3 -92 8 -122 12 -54 5 -627 13 -632 8z m1423 -3619 c4 -118
-1 -1199 -6 -1247 -14 -143 -31 -254 -51 -339 -123 -508 -406 -882 -827 -1092
-125 -63 -294 -123 -402 -144 -11 -2 -42 -8 -70 -14 -108 -21 -227 -31 -375
-32 -544 -3 -872 218 -1005 677 -32 112 -35 127 -60 330 -7 54 -8 398 -1 430
2 11 7 51 11 88 3 37 8 78 11 90 38 202 75 319 139 448 26 50 50 96 55 103 6
6 36 45 69 87 126 163 323 300 570 399 77 30 188 68 221 75 3 1 46 11 95 23
207 49 463 83 735 97 77 4 141 7 400 20 47 2 157 7 245 10 88 4 161 8 162 9 1
1 20 2 43 2 34 0 40 -3 41 -20z"/>
<path d="M37 19622 l-37 -3 2 -276 3 -275 100 -3 c351 -11 539 -103 703 -346
17 -26 50 -64 72 -85 60 -57 74 -84 149 -291 38 -103 133 -363 211 -578 78
-214 156 -430 175 -480 18 -49 63 -173 100 -275 36 -102 73 -203 82 -225 8
-22 59 -161 113 -310 54 -148 187 -513 295 -810 443 -1214 790 -2166 825
-2265 91 -252 229 -628 242 -660 l15 -35 596 0 c327 0 598 3 601 6 6 5 323
838 612 1604 68 182 127 337 131 345 3 8 7 20 9 25 3 10 49 132 378 995 81
212 149 392 151 400 2 8 10 31 18 50 8 19 61 157 116 305 56 149 106 279 111
290 5 11 36 94 70 185 34 91 65 174 69 185 5 11 14 32 20 48 13 32 158 416
177 467 60 166 229 605 248 646 14 28 53 93 88 145 36 52 80 123 98 159 54
103 156 255 208 308 141 145 271 191 557 198 77 2 147 3 156 4 14 0 16 29 16
275 0 189 -4 275 -11 276 -14 0 -2741 0 -2778 0 l-28 -1 0 -277 0 -278 97 1
c269 2 498 -50 638 -144 115 -77 181 -143 204 -205 45 -116 18 -392 -58 -616
-16 -48 -82 -228 -146 -401 -64 -173 -143 -389 -176 -480 -33 -91 -69 -187
-79 -215 -53 -140 -158 -425 -254 -687 -41 -114 -95 -260 -120 -325 -24 -65
-63 -170 -85 -233 -23 -63 -46 -124 -51 -135 -4 -11 -40 -105 -79 -210 -67
-181 -174 -461 -246 -645 -165 -420 -372 -1005 -390 -1102 -4 -21 -10 -38 -14
-39 -3 0 -13 -2 -22 -4 -13 -2 -21 22 -43 129 -41 197 -51 237 -152 586 -42
146 -80 279 -84 295 -5 17 -33 109 -64 205 -31 96 -58 184 -61 194 -8 35 -163
491 -215 631 -28 77 -53 145 -54 150 -2 6 -6 17 -9 25 -11 31 -60 166 -197
550 -78 217 -151 420 -162 450 -11 30 -33 91 -48 135 -16 44 -55 154 -88 245
-33 91 -117 325 -186 520 -70 195 -131 364 -135 375 -5 11 -18 52 -30 90 -47
159 -55 208 -55 350 -1 127 2 144 23 188 26 52 67 95 157 162 151 114 302 155
587 160 93 2 172 6 175 10 4 4 7 128 7 276 l0 269 -65 1 c-323 2 -3154 3
-3183 1z"/>
<path d="M4448 11725 c-2 -1 -37 -5 -78 -8 -248 -19 -512 -89 -727 -193 -327
-157 -575 -379 -798 -714 -83 -125 -225 -371 -225 -390 0 -11 -35 -8 -47 3 -8
9 -10 20 -18 107 -3 36 -8 76 -10 90 -2 14 -7 50 -10 80 -6 57 -12 110 -20
170 -2 19 -7 62 -10 95 -3 33 -8 71 -10 85 -2 14 -6 57 -10 95 -4 39 -8 77
-10 85 -1 8 -6 47 -10 85 -4 39 -9 81 -10 95 -2 14 -6 52 -9 85 -4 33 -9 70
-12 83 l-4 22 -1148 0 -1147 0 0 -269 c0 -148 3 -272 6 -276 4 -3 89 -8 190
-11 176 -4 214 -7 304 -19 116 -15 166 -26 230 -47 298 -102 462 -313 503
-648 9 -75 9 -7537 0 -7625 -24 -222 -110 -411 -245 -534 -102 -94 -264 -166
-418 -187 -27 -3 -58 -8 -69 -10 -48 -9 -166 -16 -292 -18 l-138 -2 -6 -30
c-4 -22 -5 -480 -1 -516 1 -5 796 -8 1769 -8 l1767 0 0 277 0 277 -105 2
c-231 4 -402 28 -534 74 -228 79 -379 250 -447 508 -24 92 -27 174 -34 1257
-3 407 -7 781 -9 830 -2 50 -7 173 -11 275 -4 102 -8 214 -10 250 -16 323 -16
428 0 434 20 7 32 -7 121 -148 41 -65 84 -131 97 -147 12 -15 36 -45 52 -66
227 -287 477 -476 840 -633 73 -32 284 -94 370 -109 33 -6 71 -13 85 -16 14
-3 45 -8 70 -11 25 -3 56 -7 70 -9 136 -21 590 -21 699 0 11 2 44 6 73 9 59 7
96 13 208 32 190 34 455 126 638 221 239 124 429 274 608 479 187 214 340 475
463 789 67 170 160 479 187 619 2 12 11 55 19 96 18 89 20 102 30 160 4 25 9
52 10 61 2 9 6 40 10 69 4 29 8 60 10 69 1 9 6 45 9 81 4 36 9 76 11 90 2 14
7 61 11 105 3 44 7 98 10 120 29 308 24 1067 -10 1400 -3 28 -8 75 -11 105
-11 112 -14 137 -29 235 -8 55 -18 118 -21 140 -19 126 -55 286 -102 460 -14
50 -26 97 -28 105 -9 38 -86 255 -125 350 -54 133 -163 344 -236 457 -200 312
-498 589 -799 746 -256 133 -582 229 -890 262 -33 4 -76 9 -95 11 -38 6 -486
14 -492 9z m157 -849 c361 -46 590 -151 810 -371 98 -97 193 -227 262 -355 74
-139 158 -362 199 -530 20 -83 46 -201 50 -225 2 -16 6 -41 9 -55 10 -46 20
-111 30 -192 2 -18 6 -49 9 -68 6 -38 12 -96 22 -205 3 -38 8 -83 10 -100 24
-196 24 -1206 0 -1332 -2 -10 -7 -63 -10 -118 -4 -55 -9 -107 -11 -115 -3 -8
-7 -35 -9 -60 -24 -242 -93 -575 -166 -790 -204 -602 -559 -959 -1048 -1055
-43 -8 -90 -17 -107 -21 -48 -10 -403 -12 -480 -4 -38 5 -91 11 -116 14 -25 3
-93 16 -150 30 -529 125 -880 468 -1081 1056 -27 80 -71 236 -82 290 -2 14
-13 70 -24 125 -11 55 -23 123 -27 150 -4 28 -9 61 -11 75 -2 14 -7 50 -9 80
-3 30 -7 64 -9 75 -3 11 -8 56 -11 100 -4 44 -8 94 -10 110 -27 225 -27 1175
-1 1425 2 19 7 71 11 115 3 44 8 94 10 110 11 89 23 176 29 220 2 11 7 40 10
65 4 25 16 86 26 135 10 50 21 101 24 115 10 56 76 270 106 345 94 239 203
410 359 565 181 179 416 303 676 356 56 12 73 15 105 20 19 3 46 7 60 9 14 3
70 8 125 11 55 4 101 7 102 8 6 5 273 -2 318 -8z"/>
<path d="M10058 11725 c-2 -2 -52 -6 -113 -9 -60 -4 -128 -8 -150 -11 -22 -2
-67 -7 -100 -10 -33 -3 -91 -10 -130 -16 -38 -5 -90 -12 -115 -15 -119 -14
-455 -96 -569 -139 -293 -110 -452 -201 -609 -350 -211 -199 -304 -418 -303
-710 2 -380 140 -600 456 -723 55 -22 143 -47 205 -58 14 -3 32 -7 40 -9 38
-11 206 -27 306 -30 l111 -3 2 111 c1 62 4 126 5 142 2 17 7 68 10 113 4 46
10 94 12 105 2 12 7 41 10 63 15 121 59 264 115 376 132 263 363 427 689 493
3 1 39 5 80 9 41 5 84 10 95 12 25 5 318 5 360 0 17 -2 55 -6 86 -10 395 -43
673 -240 815 -576 35 -84 77 -236 90 -325 3 -27 8 -58 10 -67 1 -9 5 -45 9
-80 3 -35 8 -81 10 -103 15 -149 26 -1217 13 -1231 -6 -6 -182 -13 -688 -29
-475 -15 -724 -27 -860 -40 -25 -2 -74 -7 -110 -10 -35 -3 -78 -8 -95 -10 -16
-2 -66 -9 -111 -15 -44 -6 -89 -12 -100 -14 -10 -2 -39 -7 -64 -10 -25 -3 -56
-8 -70 -11 -14 -3 -41 -8 -60 -11 -19 -3 -42 -7 -50 -9 -8 -2 -30 -7 -49 -10
-77 -13 -346 -87 -468 -129 -646 -222 -1030 -559 -1232 -1084 -28 -71 -77
-260 -91 -352 -7 -41 -14 -82 -15 -90 -22 -119 -21 -548 0 -690 2 -14 7 -45
10 -70 58 -435 238 -829 504 -1103 198 -205 455 -362 732 -446 78 -24 212 -58
259 -66 19 -3 42 -8 50 -10 8 -2 40 -7 70 -10 30 -3 66 -8 80 -10 119 -17 366
-22 530 -11 518 37 913 213 1273 569 114 113 138 141 280 317 22 27 214 274
248 320 32 42 37 44 86 46 49 1 52 -1 57 -25 5 -23 61 -324 72 -391 11 -62 67
-367 70 -385 8 -40 45 -251 51 -287 3 -21 11 -39 17 -39 6 -1 1148 -2 2539 -3
l2527 -1 1 50 c0 27 1 152 2 277 l2 228 -90 1 c-159 1 -344 19 -450 44 -227
54 -395 178 -482 355 -44 88 -77 208 -88 319 -7 68 -11 1339 -4 1345 4 3 411
306 444 330 11 8 132 98 270 200 l249 186 30 -48 c17 -26 53 -83 81 -127 104
-161 304 -474 396 -618 52 -81 126 -198 166 -260 40 -62 86 -134 103 -162 17
-27 86 -136 153 -241 67 -104 185 -289 262 -410 143 -224 305 -470 369 -559
144 -202 327 -410 454 -518 201 -171 531 -308 817 -342 28 -3 64 -8 80 -10
108 -16 395 -24 1078 -31 l597 -6 0 279 0 278 -98 3 c-53 2 -110 5 -127 7 -16
2 -61 6 -100 10 -38 3 -81 8 -95 10 -14 3 -45 7 -70 10 -25 3 -56 7 -70 10
-13 3 -42 7 -65 11 -393 58 -774 161 -945 256 -217 120 -545 447 -764 761 -35
51 -78 119 -96 152 -18 33 -50 94 -72 135 -22 41 -48 89 -58 105 -10 17 -33
59 -52 95 -34 62 -321 590 -378 695 -15 28 -46 86 -70 130 -23 44 -50 94 -60
110 -10 17 -34 62 -55 100 -38 71 -79 146 -121 223 -13 23 -47 86 -75 140 -29
53 -55 102 -59 107 -4 6 -31 55 -60 110 -29 55 -56 105 -60 110 -4 6 -31 55
-60 110 -30 55 -71 131 -92 169 -56 99 -56 103 -1 162 49 52 65 69 193 214 41
47 83 94 93 105 11 11 42 47 70 79 29 32 61 69 72 80 11 12 67 75 125 141 58
66 112 127 120 135 9 8 40 44 70 79 30 35 69 78 85 96 17 17 59 65 95 106 72
82 391 404 485 489 171 156 387 338 481 406 161 116 431 222 634 249 25 3 56
8 70 10 90 15 362 20 593 12 l57 -2 1 30 c0 32 0 319 -1 448 l0 77 -1714 0
-1713 0 0 -270 c0 -185 4 -273 11 -278 6 -3 49 -7 96 -8 86 -1 200 -10 255
-20 17 -3 39 -6 50 -8 186 -33 249 -127 220 -331 -34 -243 -283 -604 -834
-1210 -81 -88 -155 -169 -166 -181 -11 -11 -38 -41 -60 -65 -64 -71 -151 -166
-259 -284 -56 -60 -121 -132 -146 -159 -25 -28 -54 -60 -65 -72 -11 -11 -58
-63 -105 -114 -47 -52 -110 -121 -141 -154 -31 -34 -67 -73 -80 -87 -13 -15
-58 -64 -99 -109 -41 -46 -86 -95 -100 -109 -14 -14 -65 -71 -115 -126 -154
-170 -169 -185 -177 -185 -5 0 -7 3 -5 8 3 4 8 93 12 197 3 105 8 224 10 265
4 84 15 344 22 495 2 55 6 709 8 1453 l4 1352 -1212 0 -1212 0 1 -270 c0 -149
3 -273 7 -276 3 -3 75 -7 159 -9 84 -2 176 -6 203 -9 28 -3 70 -8 95 -11 108
-12 211 -41 306 -86 240 -113 376 -326 403 -631 9 -104 7 -4432 -3 -4473 -4
-16 -11 -56 -17 -87 -21 -123 -88 -268 -165 -358 -169 -198 -407 -277 -834
-274 -283 2 -448 55 -570 184 -90 95 -154 248 -175 415 -4 28 -9 61 -12 75 -4
14 -7 867 -8 1895 -3 1874 -5 2093 -29 2261 -3 22 -8 59 -11 84 -3 25 -7 56
-10 70 -2 14 -7 36 -9 50 -88 484 -280 847 -582 1101 -193 161 -427 280 -698
354 -93 25 -111 30 -166 40 -14 2 -50 9 -80 15 -30 6 -68 13 -85 15 -16 3 -46
7 -65 10 -41 7 -82 11 -165 20 -33 3 -85 8 -115 11 -53 6 -667 14 -672 9z
m1443 -3629 c0 -17 1 -267 1 -556 1 -468 -5 -708 -17 -781 -2 -13 -6 -41 -9
-61 -15 -95 -20 -120 -47 -227 -157 -605 -562 -1014 -1158 -1172 -42 -11 -92
-22 -111 -25 -19 -2 -44 -6 -55 -9 -23 -5 -89 -13 -155 -20 -53 -5 -314 -6
-350 -1 -14 2 -45 7 -70 10 -229 29 -425 125 -561 274 -49 54 -149 211 -149
235 0 7 -4 17 -9 23 -22 22 -79 238 -96 359 -24 179 -24 476 0 645 7 52 16
106 21 132 3 15 5 30 5 33 0 2 6 23 14 45 8 22 12 40 10 40 -9 0 57 176 93
249 119 236 295 406 557 536 141 69 283 122 422 155 112 27 273 58 338 65 28
3 59 7 70 9 12 2 52 7 90 11 39 3 86 8 105 10 41 5 170 12 355 20 72 3 166 8
210 10 44 2 150 7 235 11 85 3 156 7 157 8 1 1 24 2 52 2 50 1 51 0 52 -30z"/>
</g>
</svg>
