<?xml version="1.0" standalone="no"?>
<!DOCTYPE svg PUBLIC "-//W3C//DTD SVG 20010904//EN"
 "http://www.w3.org/TR/2001/REC-SVG-20010904/DTD/svg10.dtd">
<svg version="1.0" xmlns="http://www.w3.org/2000/svg"
 width="1250.000000pt" height="1250.000000pt" viewBox="0 0 1250.000000 1250.000000"
 preserveAspectRatio="xMidYMid meet">
<metadata>
Created by potrace 1.11, written by Peter Selinger 2001-2013
</metadata>
<g transform="translate(0.000000,1250.000000) scale(0.100000,-0.100000)"
fill="#000000" stroke="none">
<path d="M5620 11979 c-425 -38 -715 -142 -891 -318 -127 -127 -165 -231 -157
-426 10 -212 87 -321 276 -386 66 -23 224 -49 299 -49 l51 0 6 78 c18 238 39
339 93 445 70 140 201 236 373 274 102 22 338 22 440 0 170 -38 305 -137 373
-277 78 -159 97 -307 97 -757 0 -291 -1 -313 -17 -313 -145 -1 -841 -34 -951
-45 -799 -84 -1245 -390 -1336 -920 -48 -275 -17 -598 78 -823 167 -396 503
-608 996 -629 308 -13 542 46 750 187 122 83 299 273 450 483 29 41 38 48 65
45 l30 -3 57 -315 c31 -173 57 -318 57 -322 1 -5 228 -8 506 -8 l505 0 0 155
c0 85 -3 155 -7 155 -5 0 -49 5 -100 10 -203 21 -297 95 -350 276 -16 54 -18
159 -24 1259 -6 1176 -6 1202 -28 1314 -55 291 -139 462 -305 618 -161 152
-345 231 -648 278 -125 20 -535 28 -688 14z m960 -2411 c0 -401 -8 -484 -60
-640 -56 -165 -121 -269 -243 -385 -93 -88 -198 -151 -322 -192 -244 -81 -510
-78 -685 6 -76 37 -169 132 -208 214 -57 119 -76 221 -76 414 -1 182 13 276
58 401 94 257 321 416 696 488 142 27 462 51 733 55 l107 1 0 -362z"/>
<path d="M10455 11984 c-324 -34 -527 -125 -726 -324 -76 -77 -249 -313 -249
-340 0 -6 -9 -10 -20 -10 -24 0 -20 -17 -70 300 -22 140 -43 267 -46 283 l-6
27 -604 0 -604 0 0 -154 0 -153 46 -7 c26 -3 66 -6 90 -6 76 0 198 -29 271
-65 114 -56 187 -155 213 -290 8 -44 10 -416 8 -1365 l-3 -1305 -26 -66 c-49
-127 -125 -204 -245 -249 -64 -24 -143 -36 -286 -45 l-108 -7 0 -154 0 -154
1005 0 1005 0 0 154 0 153 -46 7 c-26 3 -68 6 -93 6 -79 1 -199 27 -265 58
-76 35 -136 92 -171 161 -55 110 -55 99 -55 1094 0 591 4 952 11 1015 72 653
399 984 948 959 150 -6 244 -28 356 -82 110 -53 178 -112 244 -210 89 -134
139 -305 160 -550 7 -75 11 -614 11 -1442 l0 -1323 650 0 650 0 0 154 0 153
-46 7 c-26 3 -68 6 -93 6 -25 0 -77 7 -114 15 -180 38 -276 129 -324 307 -15
56 -17 181 -23 1183 -7 1094 -7 1123 -29 1235 -28 149 -55 245 -98 350 -149
364 -416 576 -823 655 -83 16 -404 28 -495 19z"/>
<path d="M30 11766 l0 -153 31 -7 c17 -3 50 -6 73 -6 60 0 165 -27 211 -54 70
-42 133 -115 181 -211 24 -49 318 -841 652 -1760 l607 -1670 345 -2 345 -3
608 1608 c335 884 630 1656 657 1715 62 138 103 206 162 268 72 75 132 99 288
112 l130 11 0 153 0 153 -805 0 -805 0 0 -154 0 -154 78 -6 c216 -17 302 -44
377 -120 57 -57 81 -112 91 -210 13 -132 -5 -190 -340 -1100 -173 -468 -367
-988 -431 -1156 -64 -168 -138 -369 -164 -448 -26 -79 -52 -143 -57 -143 -5 0
-21 53 -35 118 -74 328 -191 690 -526 1623 -158 437 -299 840 -315 894 -80
281 12 475 247 524 28 6 98 14 158 18 l107 7 0 153 0 154 -935 0 -935 0 0
-154z"/>
<path d="M8250 7336 l0 -154 98 -6 c213 -14 303 -36 396 -97 62 -41 122 -127
149 -214 l22 -70 0 -2140 c0 -2049 -1 -2143 -18 -2200 -54 -176 -153 -273
-319 -314 -42 -10 -243 -30 -305 -31 -23 0 -23 -1 -23 -155 l0 -155 1005 0
1005 0 0 154 0 154 -62 6 c-35 3 -97 8 -138 11 -152 13 -284 76 -350 166 -77
106 -90 204 -90 655 l0 342 277 206 c152 114 280 203 284 199 3 -5 190 -296
414 -647 224 -352 439 -685 479 -740 100 -142 260 -301 361 -360 91 -53 225
-99 335 -115 114 -17 355 -31 553 -31 l177 0 0 154 0 155 -57 6 c-222 24 -349
88 -516 258 -115 117 -182 212 -738 1039 l-539 802 28 30 c16 17 154 173 307
346 513 581 745 784 998 871 45 15 109 31 142 34 116 12 105 -6 105 170 l0
155 -830 0 -830 0 0 -154 0 -153 38 -7 c20 -3 58 -6 83 -6 69 0 160 -19 196
-42 92 -56 61 -222 -78 -423 -98 -142 -211 -272 -702 -810 l-502 -549 -3 54
c-2 30 1 161 7 290 7 145 11 856 11 1853 l0 1617 -685 0 -685 0 0 -154z"/>
<path d="M2455 5879 c-121 -16 -256 -57 -370 -114 -222 -109 -379 -270 -529
-542 -24 -43 -49 -78 -57 -78 -11 0 -22 70 -51 320 -20 176 -37 328 -38 338 0
16 -38 17 -655 17 l-655 0 0 -153 0 -153 163 -12 c235 -16 338 -51 424 -145
23 -25 53 -67 66 -94 55 -109 52 16 52 -2348 0 -2043 -1 -2194 -17 -2252 -33
-120 -85 -199 -165 -254 -83 -57 -180 -81 -385 -94 l-98 -7 0 -154 0 -154
1005 0 1005 0 0 154 0 154 -67 6 c-166 14 -242 26 -294 45 -164 62 -247 177
-270 375 -5 45 -9 288 -9 541 0 253 -5 605 -12 782 -6 177 -8 326 -4 330 9 9
18 -2 86 -107 235 -364 602 -550 1085 -550 827 0 1317 462 1469 1383 39 234
50 386 50 702 0 581 -69 967 -233 1311 -219 456 -566 697 -1083 753 -113 13
-313 12 -413 0z m248 -484 c434 -76 654 -400 734 -1080 24 -213 24 -768 -1
-980 -43 -367 -113 -598 -239 -788 -161 -241 -390 -348 -717 -334 -279 12
-456 81 -615 241 -134 136 -224 318 -279 566 -95 431 -95 1176 1 1610 91 411
279 642 600 735 156 45 360 57 516 30z"/>
<path d="M5850 5879 c-425 -38 -715 -142 -891 -318 -127 -127 -165 -231 -157
-426 10 -212 87 -321 276 -386 66 -23 224 -49 299 -49 l51 0 6 78 c18 238 39
339 93 445 70 140 201 236 373 274 102 22 338 22 440 0 170 -38 305 -137 373
-277 78 -159 97 -307 97 -757 0 -291 -1 -313 -17 -313 -145 -1 -841 -34 -951
-45 -799 -84 -1245 -390 -1336 -920 -48 -275 -17 -598 78 -823 167 -396 503
-608 996 -629 308 -13 542 46 750 187 122 83 299 273 450 483 29 41 38 48 65
45 l30 -3 57 -315 c31 -173 57 -318 57 -322 1 -5 228 -8 506 -8 l505 0 0 155
c0 85 -3 155 -7 155 -5 0 -49 5 -100 10 -203 21 -297 95 -350 276 -16 54 -18
159 -24 1259 -6 1176 -6 1202 -28 1314 -55 291 -139 462 -305 618 -161 152
-345 231 -648 278 -125 20 -535 28 -688 14z m960 -2411 c0 -401 -8 -484 -60
-640 -56 -165 -121 -269 -243 -385 -93 -88 -198 -151 -322 -192 -244 -81 -510
-78 -685 6 -76 37 -169 132 -208 214 -57 119 -76 221 -76 414 -1 182 13 276
58 401 94 257 321 416 696 488 142 27 462 51 733 55 l107 1 0 -362z"/>
</g>
</svg>
